<?xml version="1.0" encoding="utf-8"?>
<!-- Generator: Adobe Illustrator 23.0.2, SVG Export Plug-In . SVG Version: 6.00 Build 0)  -->
<svg version="1.1" xmlns="http://www.w3.org/2000/svg" xmlns:xlink="http://www.w3.org/1999/xlink" x="0px" y="0px"
	 viewBox="0 0 2048 2048" style="enable-background:new 0 0 2048 2048;" xml:space="preserve">
<style type="text/css">
	.st0{fill:url(#SVGID_1_);}
	.st1{fill:#461515;}
	.st2{fill:url(#SVGID_2_);}
	.st3{clip-path:url(#XMLID_13_);fill:url(#XMLID_14_);}
	.st4{fill:#4FB44D;}
	.st5{fill:#CEE18C;}
	.st6{fill:url(#SVGID_3_);}
	.st7{fill:url(#SVGID_4_);}
	.st8{fill:url(#SVGID_5_);}
	.st9{opacity:0.81;}
	.st10{fill:#FFFFFF;}
	.st11{fill:#542A1A;}
	.st12{fill:#F1A221;}
	.st13{fill:url(#SVGID_6_);}
	.st14{fill:#EA6726;}
	.st15{fill:url(#SVGID_7_);}
	.st16{display:none;}
	.st17{display:inline;}
	.st18{display:inline;clip-path:url(#XMLID_15_);fill:#A61E22;}
	.st19{display:none;fill:#FFFFFF;stroke:#542A19;stroke-width:8;stroke-miterlimit:10;}
	.st20{fill:#542A19;}
	.st21{fill:none;stroke:#542A1A;stroke-width:5;stroke-miterlimit:10;}
	.st22{fill:url(#SVGID_8_);}
	.st23{display:none;fill:none;stroke:#444B54;stroke-width:40;stroke-linecap:round;stroke-miterlimit:10;}
	.st24{display:none;fill:#F2A81E;}
	.st25{opacity:0.76;fill:#461515;}
	.st26{display:inline;clip-path:url(#XMLID_17_);fill:#A61E22;}
	.st27{fill:url(#SVGID_9_);}
	.st28{display:inline;clip-path:url(#XMLID_18_);fill:#A61E22;}
	.st29{display:inline;clip-path:url(#XMLID_21_);fill:#A61E22;}
	.st30{fill:#B2D1E1;}
	.st31{fill:#CFDAE0;}
	.st32{fill:url(#SVGID_10_);}
	.st33{opacity:0.81;fill:none;stroke:#FFFFFF;stroke-width:60;stroke-linecap:round;stroke-miterlimit:10;}
	.st34{display:inline;clip-path:url(#XMLID_22_);fill:#A61E22;}
	.st35{display:none;fill:none;stroke:#542A19;stroke-width:40;stroke-linecap:round;stroke-miterlimit:10;}
	.st36{fill:#451716;}
	.st37{fill:url(#SVGID_11_);}
	.st38{display:inline;clip-path:url(#XMLID_23_);fill:#A61E22;}
	.st39{display:inline;clip-path:url(#XMLID_24_);fill:#A61E22;}
	.st40{fill:url(#SVGID_12_);}
	.st41{fill:#542A1B;}
	.st42{fill:url(#SVGID_13_);}
	.st43{display:inline;clip-path:url(#XMLID_25_);fill:#A61E22;}
	.st44{display:inline;clip-path:url(#XMLID_26_);fill:#A61E22;}
	.st45{fill:url(#SVGID_14_);}
	.st46{fill:url(#SVGID_15_);}
	.st47{fill:url(#SVGID_16_);}
	.st48{opacity:0.64;fill:#606161;}
	.st49{fill:url(#SVGID_17_);}
	.st50{fill:url(#SVGID_18_);}
	.st51{fill:url(#SVGID_19_);}
	.st52{fill:#441716;}
	.st53{fill:url(#SVGID_20_);}
	.st54{fill:none;stroke:#451716;stroke-width:20;stroke-linecap:round;stroke-miterlimit:10;}
	.st55{fill:url(#SVGID_21_);}
	.st56{fill:url(#SVGID_22_);}
	.st57{fill:#F1A81F;}
	.st58{fill:url(#SVGID_23_);}
	.st59{fill:url(#SVGID_24_);}
	.st60{fill:#680D0D;}
	.st61{fill:#A61E22;}
	.st62{fill:url(#SVGID_25_);}
	.st63{fill:url(#SVGID_26_);}
	.st64{fill:url(#SVGID_27_);}
	.st65{fill:none;stroke:#451716;stroke-width:40;stroke-linecap:round;stroke-miterlimit:10;}
	.st66{fill:url(#SVGID_28_);}
	.st67{fill:url(#SVGID_29_);}
	.st68{fill:#F1F2F2;}
	.st69{fill:#BE1E2D;}
	.st70{fill:url(#SVGID_30_);}
	.st71{fill:#E6E7E8;}
	.st72{fill:url(#SVGID_31_);}
	.st73{fill:#7AA540;}
	.st74{fill:url(#SVGID_32_);}
	.st75{fill:url(#SVGID_33_);}
	.st76{fill:url(#SVGID_34_);}
	.st77{fill:url(#SVGID_35_);}
	.st78{fill:url(#SVGID_36_);}
	.st79{fill:url(#SVGID_37_);}
	.st80{fill:url(#SVGID_38_);}
	.st81{fill:url(#SVGID_39_);}
	.st82{fill:url(#SVGID_40_);}
	.st83{fill:url(#SVGID_41_);}
	.st84{fill:url(#SVGID_42_);}
	.st85{fill:url(#SVGID_43_);}
	.st86{fill:url(#SVGID_44_);}
	.st87{fill:url(#SVGID_45_);}
	.st88{fill:url(#SVGID_46_);}
	.st89{fill:url(#SVGID_47_);}
	.st90{fill:url(#SVGID_48_);}
	.st91{fill:url(#SVGID_49_);}
	.st92{fill:url(#SVGID_50_);}
	.st93{fill:url(#SVGID_51_);}
	.st94{fill:url(#SVGID_52_);}
	.st95{fill:url(#SVGID_53_);}
	.st96{fill:#D1D3D4;}
</style>
<g id="Guides">
</g>
<g id="Layer_2">
</g>
<g id="Layer_3">
</g>
<g id="Layer_4">
</g>
<g id="Layer_5">
</g>
<g id="Layer_6">
</g>
<g id="Layer_7">
</g>
<g id="Layer_8">
</g>
<g id="Layer_9">
</g>
<g id="Layer_10">
</g>
<g id="Layer_11">
</g>
<g id="Layer_12">
</g>
<g id="Layer_13">
</g>
<g id="Layer_14">
</g>
<g id="Layer_15">
</g>
<g id="Layer_16">
</g>
<g id="Layer_17">
</g>
<g id="Layer_18">
</g>
<g id="Layer_19">
</g>
<g id="Layer_20">
</g>
<g id="Layer_21">
	<g>
		<linearGradient id="SVGID_1_" gradientUnits="userSpaceOnUse" x1="280.28" y1="1024" x2="1767.72" y2="1024">
			<stop  offset="0" style="stop-color:#FEDC52"/>
			<stop  offset="0.9947" style="stop-color:#FCB117"/>
		</linearGradient>
		<circle class="st0" cx="1024" cy="1024" r="743.72"/>
		<g class="st9">
			<path class="st10" d="M540.23,770.15c-2.07,0-4.16-0.21-6.27-0.66c-16.21-3.44-26.55-19.38-23.11-35.58
				c21.98-103.42,83.1-188.9,176.75-247.22c76.68-47.75,173.13-74.92,264.59-74.41c16.57,0.08,29.93,13.58,29.85,30.15
				c-0.08,16.57-13.59,29.89-30.15,29.85c-0.58,0-1.18,0-1.77,0c-130.25,0-337.77,72.7-380.58,274.11
				C566.55,760.49,554.09,770.15,540.23,770.15z"/>
		</g>
		<g>
			<g>
				<g>
					<path class="st36" d="M1331.11,875.54c-7.73,0-15.05-4.51-18.32-11.96c-1.01-2.17-3.76-7.56-4.75-9.03
						c-14.4-21.16-46.77-34.83-82.46-34.83c-33.17,0-63.6,11.81-79.43,30.82c-3.16,3.79-5.61,7.76-7.28,11.82
						c-4.23,10.21-15.92,15.05-26.13,10.83c-10.21-4.23-15.05-15.92-10.83-26.13c3.22-7.78,7.76-15.22,13.5-22.11
						c23.58-28.32,64.76-45.22,110.17-45.22c49.3,0,93.57,20.05,115.53,52.32c3.45,5.07,8.06,14.78,8.6,16.14
						c4.06,10.27-0.98,21.89-11.25,25.95C1336.04,875.09,1333.56,875.54,1331.11,875.54z M1312.51,862.88
						c0.04,0.1,0.12,0.32,0.26,0.63C1312.68,863.3,1312.59,863.09,1312.51,862.88z"/>
				</g>
			</g>
			<g>
				<g>
					<path class="st36" d="M927.79,875.54c-7.72,0-15.04-4.5-18.31-11.95c-1.01-2.17-3.77-7.58-4.76-9.04
						c-14.4-21.16-46.77-34.83-82.46-34.83c-33.17,0-63.6,11.81-79.43,30.82c-3.16,3.79-5.61,7.76-7.28,11.81
						c-4.22,10.21-15.92,15.05-26.13,10.83c-10.21-4.22-15.05-15.92-10.83-26.13c3.22-7.78,7.76-15.22,13.5-22.11
						c23.58-28.32,64.76-45.22,110.17-45.22c49.3,0,93.56,20.05,115.53,52.32c3.43,5.04,8.04,14.74,8.58,16.1
						c4.08,10.26-0.94,21.89-11.2,25.97C932.75,875.08,930.25,875.54,927.79,875.54z M909.2,862.92c0.04,0.1,0.12,0.31,0.25,0.61
						C909.36,863.33,909.28,863.12,909.2,862.92z"/>
				</g>
			</g>
		</g>
		<g>
			<path class="st10" d="M1374.36,1530.78H673.64c-53.36,0-96.61-43.25-96.61-96.61v-238.78c0-53.36,43.25-96.61,96.61-96.61h700.72
				c53.36,0,96.61,43.25,96.61,96.61v238.78C1470.97,1487.53,1427.72,1530.78,1374.36,1530.78z"/>
			<path class="st10" d="M1645.37,1432.83l-238.92-43.21c-16.31-2.96-31.91,7.88-34.86,24.18c-2.95,16.3,7.88,31.91,24.18,34.86
				l210.49,38.07C1620.07,1469.37,1633.13,1451.39,1645.37,1432.83z"/>
			<path class="st10" d="M640.82,1389.61l-238.27,43.1c12.24,18.57,25.29,36.55,39.1,53.9l209.85-37.96
				c16.3-2.95,27.13-18.56,24.18-34.86C672.74,1397.49,657.13,1386.66,640.82,1389.61z"/>
			<path class="st10" d="M1766.92,1058.55l-365.29,137.1c-15.51,5.82-23.37,23.12-17.55,38.63c4.52,12.04,15.95,19.47,28.09,19.47
				c3.5,0,7.06-0.62,10.54-1.92l338.21-126.94C1763.88,1103.06,1765.89,1080.93,1766.92,1058.55z"/>
			<path class="st10" d="M646.28,1195.65l-365.2-137.07c1.02,22.38,3.04,44.51,6,66.34l338.12,126.9c3.47,1.3,7.03,1.92,10.54,1.92
				c12.14,0,23.57-7.43,28.09-19.47C669.65,1218.76,661.8,1201.47,646.28,1195.65z"/>
		</g>
	</g>
</g>
<g id="Layer_22">
</g>
<g id="Layer_23">
</g>
<g id="Layer_24">
</g>
<g id="Layer_25">
</g>
<g id="Layer_26">
</g>
</svg>
